<?xml version="1.0" standalone="no"?>
<!DOCTYPE svg PUBLIC "-//W3C//DTD SVG 20010904//EN"
 "http://www.w3.org/TR/2001/REC-SVG-20010904/DTD/svg10.dtd">
<svg version="1.0" xmlns="http://www.w3.org/2000/svg"
 width="512.000000pt" height="512.000000pt" viewBox="0 0 512.000000 512.000000"
 preserveAspectRatio="xMidYMid meet">

<g transform="translate(0.000000,512.000000) scale(0.100000,-0.100000)"
fill="#000000" stroke="none">
<path d="M835 5106 c-95 -30 -162 -88 -204 -176 l-26 -55 0 -2315 0 -2315 26
-55 c34 -71 89 -126 158 -159 l56 -26 1715 0 1715 0 55 26 c100 47 159 125
179 234 15 83 15 2774 0 2845 -14 66 -61 126 -124 159 l-50 26 -765 5 c-688 4
-768 7 -795 22 -38 21 -77 63 -101 108 -18 33 -19 78 -24 775 l-5 740 -22 41
c-28 53 -91 107 -142 122 -57 18 -1591 16 -1646 -2z"/>
<path d="M3123 5100 c-21 -13 -35 -31 -42 -57 -15 -51 -15 -1234 -1 -1285 6
-20 22 -46 37 -58 25 -20 36 -20 679 -20 l652 0 30 25 c36 30 47 70 32 111
-12 33 -1239 1267 -1282 1290 -37 19 -67 18 -105 -6z"/>
</g>
</svg>
