<?xml version="1.0" standalone="no"?>
<!DOCTYPE svg PUBLIC "-//W3C//DTD SVG 20010904//EN"
 "http://www.w3.org/TR/2001/REC-SVG-20010904/DTD/svg10.dtd">
<svg version="1.0" xmlns="http://www.w3.org/2000/svg"
 width="512.000000pt" height="512.000000pt" viewBox="0 0 512.000000 512.000000"
 preserveAspectRatio="xMidYMid meet">

<g transform="translate(0.000000,512.000000) scale(0.100000,-0.100000)"
fill="#000000" stroke="none">
<path d="M1410 5106 c-96 -25 -174 -98 -210 -193 -18 -48 -20 -78 -20 -286 l0
-233 1079 -1072 c785 -780 1089 -1088 1115 -1130 23 -39 79 -193 173 -477
l138 -420 0 -105 c0 -95 -3 -111 -28 -162 -82 -168 -262 -266 -434 -237 -32 5
-245 56 -473 114 -317 80 -432 113 -490 141 -71 35 -102 64 -578 538 l-502
501 2 -930 3 -930 27 -51 c32 -60 93 -118 157 -148 l46 -21 1720 0 1720 0 50
24 c63 32 124 93 156 156 l24 50 3 1435 c2 1071 0 1446 -9 1478 -15 54 -77
125 -131 148 -40 18 -89 19 -793 24 -750 5 -750 5 -785 27 -49 30 -75 60 -99
113 -20 44 -21 62 -21 743 0 503 -3 711 -12 745 -15 60 -94 142 -154 160 -59
17 -1609 16 -1674 -2z"/>
<path d="M3714 5111 c-12 -5 -31 -22 -43 -37 -21 -27 -21 -28 -21 -671 0 -455
3 -651 11 -666 6 -12 21 -30 33 -39 19 -16 71 -18 676 -18 718 0 684 -3 710
59 29 70 44 52 -638 734 -559 559 -642 638 -672 642 -19 3 -45 1 -56 -4z"/>
<path d="M538 4366 c-53 -19 -93 -54 -294 -258 -160 -162 -183 -189 -199 -237
-21 -64 -17 -159 10 -211 16 -34 336 -360 352 -360 5 0 167 159 361 353 l352
352 -177 177 c-194 191 -204 198 -313 198 -30 -1 -72 -7 -92 -14z"/>
<path d="M990 3424 l-355 -356 779 -774 780 -775 357 357 357 357 -775 771
c-426 424 -778 772 -782 774 -3 1 -166 -158 -361 -354z"/>
<path d="M2776 1651 c-186 -186 -334 -341 -330 -343 29 -17 837 -209 856 -205
32 8 66 42 74 73 5 19 -29 137 -122 420 -71 217 -131 394 -134 394 -3 0 -157
-152 -344 -339z"/>
</g>
</svg>
